<svg t="1709872116026" class="icon" viewBox="0 0 1024 1024" version="1.1" xmlns="http://www.w3.org/2000/svg" p-id="4220" width="21" height="21"><path d="M432 221c0-44.183 35.817-80 80-80s80 35.817 80 80-35.817 80-80 80-80-35.817-80-80z m1e-8 291c0-44.183 35.817-80 79.99999999-79.99999999s80 35.817 79.99999999 79.99999999-35.817 80-79.99999999 79.99999999-80-35.817-79.99999999-79.99999999z m-1e-8 291c0-44.183 35.817-80 80-80s80 35.817 80 80-35.817 80-80 80-80-35.817-80-80z" p-id="4221"></path></svg>