<svg t="1709832042138" class="icon" viewBox="0 0 1024 1024" version="1.1" xmlns="http://www.w3.org/2000/svg" p-id="9959" width="21" height="21"><path d="M925.44 293.76a75.84 75.84 0 0 0-14.72 0h-196.8c-5.44 0-6.08 0-6.08-4.48a336.64 336.64 0 0 0-16.32-96 281.92 281.92 0 0 0-66.56-119.36 163.2 163.2 0 0 0-213.44-15.04 216.32 216.32 0 0 0-67.52 93.44 387.2 387.2 0 0 0-29.12 130.56c0 9.6 0 9.6-9.6 9.6H106.56A42.56 42.56 0 0 0 64 335.36v18.88c0 15.04 2.24 29.76 3.2 44.8s0 21.12 2.56 32 2.24 29.76 3.2 44.8 2.24 30.08 3.52 44.8l12.16 160c0 16.32 2.24 32 3.52 49.28l2.24 27.84 6.72 89.28v17.28a227.52 227.52 0 0 0 5.12 43.84 111.68 111.68 0 0 0 47.04 73.28 111.36 111.36 0 0 0 64 16.32h588.16A105.92 105.92 0 0 0 908.16 928a226.88 226.88 0 0 0 13.12-72.32v-2.24l6.72-91.52c1.6-18.24 2.88-36.8 4.48-55.04s2.88-40.96 4.48-61.44c0-14.4 2.24-29.12 3.2-43.52s2.56-32 3.52-47.04c1.92-23.04 3.52-45.76 5.44-68.8l5.44-70.08c1.92-22.72 3.84-46.4 5.44-69.76a43.84 43.84 0 0 0-34.56-52.48zM372.8 288a361.6 361.6 0 0 1 27.2-119.36 152.96 152.96 0 0 1 48-64 108.16 108.16 0 0 1 64-21.12 106.24 106.24 0 0 1 83.2 41.6A252.48 252.48 0 0 1 640 226.56a393.92 393.92 0 0 1 9.28 59.2 14.08 14.08 0 0 1 0 6.4 17.92 17.92 0 0 1-6.4 0h-264.32a13.12 13.12 0 0 1-5.12 0s-0.64-1.6-0.64-4.16z m486.72 455.04c0 19.84-2.88 39.36-4.48 58.88l-1.92 28.48a514.24 514.24 0 0 1-5.76 57.92 68.8 68.8 0 0 1-8.96 23.04 38.72 38.72 0 0 1-35.52 18.56H208.96a36.8 36.8 0 0 1-32-28.16 112.32 112.32 0 0 1-3.84-27.84 78.4 78.4 0 0 0 0-8.64c-4.16-51.2-8-103.36-11.52-153.6v-11.2l-3.84-54.08c0-20.8-2.88-41.28-4.48-61.76l-8.96-101.44-6.4-83.2c0-11.84-1.92-24-2.56-35.84v-3.2h743.68a29.12 29.12 0 0 1 8.96 0 24.64 24.64 0 0 1 0 8.64l-5.76 73.6-4.8 59.84c0 16-2.24 32-3.2 47.68s-2.24 32-3.52 45.44l-4.8 61.12-3.84 52.16c-0.96 11.52-1.6 22.72-2.56 33.6z" fill="#EE4C2D" p-id="9960"></path><path d="M652.48 643.2a396.8 396.8 0 0 0-106.24-45.76 209.92 209.92 0 0 1-70.08-33.6 46.72 46.72 0 0 1-4.48-74.88 86.4 86.4 0 0 1 75.84-22.4 209.6 209.6 0 0 1 79.04 25.6 34.56 34.56 0 0 0 48.32-12.16 32 32 0 0 0-13.76-45.44 146.56 146.56 0 0 0-28.8-15.68 248.96 248.96 0 0 0-112.32-19.2A147.2 147.2 0 0 0 416 448a116.16 116.16 0 0 0-32 85.44 112.64 112.64 0 0 0 42.56 82.88 276.48 276.48 0 0 0 102.08 49.6A244.16 244.16 0 0 1 610.24 704a58.24 58.24 0 0 1 25.28 47.04 47.68 47.68 0 0 1-15.68 36.16 106.88 106.88 0 0 1-74.56 28.16 189.76 189.76 0 0 1-90.56-20.16 315.2 315.2 0 0 1-28.48-16.64l-5.44-3.52a33.92 33.92 0 0 0-46.72 9.28 32 32 0 0 0 9.92 45.76 260.8 260.8 0 0 0 156.16 53.76 283.2 283.2 0 0 0 60.48-7.04 143.04 143.04 0 0 0 82.24-49.6 129.92 129.92 0 0 0 25.28-99.2 121.6 121.6 0 0 0-55.68-84.8z" fill="#EE4C2D" p-id="9961"></path></svg>