<svg t="1709831967775" class="icon" viewBox="0 0 1024 1024" version="1.1" xmlns="http://www.w3.org/2000/svg" p-id="6397" width="21" height="21"><path d="M512 512m-512 0a512 512 0 1 0 1024 0 512 512 0 1 0-1024 0Z" fill="#68A5E1" p-id="6398"></path><path d="M287.19999969 427.59999969c-3.19999969 8.59999969 1.60000031 14.20000031 0 47.20000031 0 8.80000031-38.4 49.2-53.4 91.00000031s-16.99999969 84.79999969 6 101.79999938 44.59999969-56.80000031 47.4-45.99999938c1.2 4.60000031 2.80000031 9.6 4.60000031 14.59999969a208.00000031 208.00000031 0 0 0 37.8 63.19999969c3.6 4.2-22.2 12-37.8 38.60000062s4.39999969 75.19999969 81.6 75.19999969c100.00000031 0 121.60000031-35.4 123.79999969-35.20000031a144.6 144.6 0 0 0 15.80000062 0 89.80000031 89.80000031 0 0 0 14.59999969 0c4.8 0 53.20000031 42.40000031 120 35.20000031 114-12.19999969 96.6-50.80000031 87.6-75.19999969s-42.40000031-37.39999969-40.00000031-40.00000031a174.19999969 174.19999969 0 0 0 40.00000031-77.4c3.79999969-11.59999969 30.19999969 63.40000031 50.59999969 46.00000031 8.4-7.2 25.39999969-37.60000031 8.4-101.80000031s-49.8-79.00000031-48.99999938-91.00000031a222.40000031 222.40000031 0 0 0 0-47.19999938c-6-22.2-18.79999969-17.20000031-18.80000062-22.2 0-127.2-94.60000031-230.4-211.2-230.4s-211.8 104.20000031-211.8 231.39999938c0 10.2-9 2.59999969-16.2 22.2z" fill="#FFFFFF" p-id="6399"></path></svg>